<svg width="50" height="48" viewBox="0 0 50 48" fill="none" xmlns="http://www.w3.org/2000/svg">
<rect x="0.5" y="0.643066" width="49" height="46.699" rx="9.5" fill="#35736E" stroke="#C4C4C4"/>
<path d="M39.2131 9.98493C39.7851 10.3632 40.0853 11.017 39.9777 11.6708L36.3527 34.1489C36.2677 34.6731 35.9336 35.1324 35.4465 35.3917C34.9593 35.6511 34.3759 35.6835 33.8605 35.4782L26.7068 32.6414L24.4355 36.6669C24.141 37.1911 23.5123 37.4558 22.9062 37.3099C22.3002 37.164 21.8754 36.6453 21.8754 36.0509V30.8637C21.8754 30.5773 21.9773 30.2963 22.1642 30.0694L31.5269 18.5817C31.6685 18.1981 31.1588 17.8091 30.7906 18.1279L20.6519 26.876L18.8394 28.4375C18.3183 28.886 17.5763 29.0103 16.925 28.7509L12.1105 26.8381C11.4761 26.5842 11.0457 26.0114 11.006 25.3522C10.9664 24.693 11.3175 24.0716 11.9179 23.742L37.2929 9.90928C37.899 9.57967 38.6467 9.61209 39.2187 9.98493H39.2131Z" fill="white"/>
</svg>
